<svg width="24" height="24" viewBox="0 0 24 24" fill="none" xmlns="http://www.w3.org/2000/svg">
<path d="M12 12.9167V12.6111M16.8889 12.9167V12.6111M7.11111 12.9167V12.6111M12 23C14.1756 23 16.3023 22.3549 18.1113 21.1462C19.9202 19.9375 21.3301 18.2195 22.1627 16.2095C22.9952 14.1995 23.2131 11.9878 22.7886 9.85401C22.3642 7.72022 21.3165 5.76021 19.7782 4.22183C18.2398 2.68345 16.2798 1.6358 14.146 1.21137C12.0122 0.78693 9.80047 1.00477 7.79048 1.83733C5.78049 2.66989 4.06253 4.07979 2.85383 5.88873C1.64514 7.69767 1 9.82441 1 12C1 13.76 1.41311 15.4222 2.14889 16.8974C2.70256 18.0109 1.93256 19.513 1.63922 20.6093C1.57424 20.8518 1.57422 21.1071 1.63919 21.3496C1.70415 21.5921 1.83181 21.8132 2.00931 21.9907C2.18682 22.1682 2.40792 22.2958 2.6504 22.3608C2.89288 22.4258 3.14819 22.4258 3.39067 22.3608C4.487 22.0674 5.98911 21.2974 7.10255 21.8523C8.62448 22.608 10.3008 23.0008 12 23Z" stroke="#3C3939" stroke-width="2" stroke-linecap="round" stroke-linejoin="round"/>
</svg>
