<svg width="24" height="24" viewBox="0 0 24 24" fill="none" xmlns="http://www.w3.org/2000/svg">
<path d="M12.5735 1.43461C12.4328 1.29281 12.2642 1.18111 12.0781 1.10642C11.892 1.03174 11.6924 0.995655 11.4917 1.00042C11.2909 1.00518 11.0933 1.05068 10.911 1.13411C10.7288 1.21753 10.5658 1.3371 10.4321 1.4854L1.37253 9.5266C1.13259 9.79256 0.999981 10.1366 1 10.4931V21.5487C1 21.9336 1.15452 22.3028 1.42958 22.5749C1.70463 22.8471 2.07768 23 2.46667 23H6.86667C7.25565 23 7.6287 22.8471 7.90376 22.5749C8.17881 22.3028 8.33333 21.9336 8.33333 21.5487V16.4694C8.33333 16.0845 8.48786 15.7153 8.76291 15.4432C9.03796 15.171 9.41102 15.0181 9.8 15.0181H14.2C14.589 15.0181 14.962 15.171 15.2371 15.4432C15.5121 15.7153 15.6667 16.0845 15.6667 16.4694V21.5487C15.6667 21.9336 15.8212 22.3028 16.0962 22.5749C16.3713 22.8471 16.7443 23 17.1333 23H21.5333C21.9223 23 22.2954 22.8471 22.5704 22.5749C22.8455 22.3028 23 21.9336 23 21.5487V10.5323C22.9996 10.1522 22.8484 9.78745 22.5791 9.51644L12.5735 1.43461Z" stroke="#3C3939" stroke-width="2"/>
</svg>
