<svg width="20" height="20" viewBox="0 0 20 20" fill="none" xmlns="http://www.w3.org/2000/svg">
<path d="M10.0007 1.6665C6.33398 1.6665 3.33398 4.6665 3.33398 8.33317C3.33398 12.8332 9.16732 17.9165 9.41732 18.1665C9.58398 18.2498 9.83398 18.3332 10.0007 18.3332C10.1673 18.3332 10.4173 18.2498 10.584 18.1665C10.834 17.9165 16.6673 12.8332 16.6673 8.33317C16.6673 4.6665 13.6673 1.6665 10.0007 1.6665ZM10.0007 16.4165C8.25065 14.7498 5.00065 11.1665 5.00065 8.33317C5.00065 5.58317 7.25065 3.33317 10.0007 3.33317C12.7507 3.33317 15.0007 5.58317 15.0007 8.33317C15.0007 11.0832 11.7507 14.7498 10.0007 16.4165ZM10.0007 4.99984C8.16732 4.99984 6.66732 6.49984 6.66732 8.33317C6.66732 10.1665 8.16732 11.6665 10.0007 11.6665C11.834 11.6665 13.334 10.1665 13.334 8.33317C13.334 6.49984 11.834 4.99984 10.0007 4.99984ZM10.0007 9.99984C9.08398 9.99984 8.33398 9.24984 8.33398 8.33317C8.33398 7.4165 9.08398 6.6665 10.0007 6.6665C10.9173 6.6665 11.6673 7.4165 11.6673 8.33317C11.6673 9.24984 10.9173 9.99984 10.0007 9.99984Z" fill="#3C3939"/>
</svg>
