<svg width="20" height="21" viewBox="0 0 20 21" fill="none" xmlns="http://www.w3.org/2000/svg">
<path d="M2.81806 5.63612C4.37443 5.63612 5.63612 4.37443 5.63612 2.81806C5.63612 1.26169 4.37443 0 2.81806 0C1.26169 0 0 1.26169 0 2.81806C0 4.37443 1.26169 5.63612 2.81806 5.63612Z" fill="#FFAE00"/>
<path d="M17.1813 5.63612C18.7377 5.63612 19.9994 4.37443 19.9994 2.81806C19.9994 1.26169 18.7377 0 17.1813 0C15.625 0 14.3633 1.26169 14.3633 2.81806C14.3633 4.37443 15.625 5.63612 17.1813 5.63612Z" fill="#FFAE00"/>
<path d="M17.2156 7.25879C15.678 7.25879 14.432 8.50536 14.432 10.0424V10.0693C14.2418 14.4512 12.9894 16.8248 11.2324 17.9734C12.6231 18.5619 14.124 18.7486 15.5572 18.3648C16.172 17.9576 16.6825 17.5283 17.071 17.1404C18.9598 15.2516 19.9998 12.7403 19.9998 10.0693V10.0424C19.9998 8.50478 18.7533 7.25879 17.2162 7.25879H17.2156Z" fill="#FF7B00"/>
<path d="M15.558 18.3648C10.9782 19.5927 5.70087 14.992 5.56787 10.0693V10.0424C5.56787 8.50478 4.3213 7.25879 2.78423 7.25879C1.24657 7.25879 0 8.50536 0 10.043V10.0698C0 12.7409 1.04066 15.2516 2.92889 17.1404C5.19046 19.4019 10.1633 21.8333 15.5574 18.3648H15.558Z" fill="#FFAE00"/>
</svg>
