<svg width="24" height="25" viewBox="0 0 24 25" fill="none" xmlns="http://www.w3.org/2000/svg">
<path d="M21.625 24C21.9897 24 22.3394 23.8555 22.5973 23.5983C22.8551 23.3411 23 22.9923 23 22.6286V20.9198C23.0055 17.0715 17.5357 14.0571 12 14.0571C6.46425 14.0571 1 17.0715 1 20.9198V22.6286C1 22.9923 1.14487 23.3411 1.40273 23.5983C1.66059 23.8555 2.01033 24 2.375 24H21.625ZM16.9555 5.94263C16.9555 6.5917 16.8273 7.23442 16.5783 7.83409C16.3292 8.43376 15.9642 8.97863 15.5041 9.43759C15.0439 9.89656 14.4976 10.2606 13.8964 10.509C13.2952 10.7574 12.6508 10.8853 12 10.8853C11.3492 10.8853 10.7048 10.7574 10.1036 10.509C9.50238 10.2606 8.95609 9.89656 8.49593 9.43759C8.03577 8.97863 7.67075 8.43376 7.42171 7.83409C7.17268 7.23442 7.0445 6.5917 7.0445 5.94263C7.0445 4.63176 7.56659 3.37459 8.49593 2.44766C9.42527 1.52074 10.6857 1 12 1C13.3143 1 14.5747 1.52074 15.5041 2.44766C16.4334 3.37459 16.9555 4.63176 16.9555 5.94263Z" stroke="#3C3939" stroke-width="2" stroke-linecap="round" stroke-linejoin="round"/>
</svg>
