<svg width="172" height="172" viewBox="0 0 172 172" fill="none" xmlns="http://www.w3.org/2000/svg">
<path fill-rule="evenodd" clip-rule="evenodd" d="M86.0563 142.753C83.2108 148.808 77.0569 153 69.9238 153C61.3749 153 54.2325 146.979 52.5062 138.946C49.5284 141.183 45.8267 142.509 41.8152 142.509C31.9762 142.509 24 134.533 24 124.694C24 116.542 29.4752 109.669 36.9488 107.551C30.524 98.3793 26.7713 87.3156 26.7713 75.4047C26.7713 43.701 53.3585 18 86.1554 18C118.952 18 145.54 43.701 145.54 75.4047C145.54 87.3362 141.774 98.4176 135.329 107.599C142.718 109.77 148.113 116.602 148.113 124.694C148.113 134.533 140.136 142.509 130.297 142.509C126.286 142.509 122.584 141.183 119.606 138.946C117.88 146.979 110.738 153 102.189 153C95.0557 153 88.9017 148.808 86.0563 142.753Z" fill="#D4D2D2"/>
<circle cx="70.1224" cy="69.4661" r="16.8255" fill="white"/>
<circle cx="102.19" cy="69.4661" r="16.8255" fill="white"/>
<circle cx="99.6161" cy="69.4657" r="11.8768" fill="#181818"/>
<circle cx="72.4979" cy="69.4657" r="11.8768" fill="#181818"/>
<circle cx="86.1561" cy="88.0731" r="13.8563" fill="#717171"/>
<circle cx="86.1557" cy="88.0727" r="2.96921" fill="#3C3939"/>
</svg>
