<svg width="24" height="24" viewBox="0 0 24 24" fill="none" xmlns="http://www.w3.org/2000/svg">
<path d="M16.4436 16.4446V7.55566M11.9991 16.4446V10.889M7.55469 16.4446V13.1112" stroke="#FF8411" stroke-width="2" stroke-linecap="round" stroke-linejoin="round"/>
<path d="M2 21.3333V2.66667C2 2.48986 2.07024 2.32029 2.19526 2.19526C2.32029 2.07024 2.48986 2 2.66667 2H21.3333C21.5101 2 21.6797 2.07024 21.8047 2.19526C21.9298 2.32029 22 2.48986 22 2.66667V21.3333C22 21.5101 21.9298 21.6797 21.8047 21.8047C21.6797 21.9298 21.5101 22 21.3333 22H2.66667C2.48986 22 2.32029 21.9298 2.19526 21.8047C2.07024 21.6797 2 21.5101 2 21.3333Z" stroke="#FF8411" stroke-width="2"/>
</svg>
