<svg width="24" height="24" viewBox="0 0 24 24" fill="none" xmlns="http://www.w3.org/2000/svg">
<path d="M17.0413 11.9997C17.0413 12.9968 16.7457 13.9716 16.1917 14.8007C15.6377 15.6298 14.8503 16.276 13.929 16.6576C13.0078 17.0392 11.9941 17.139 11.0161 16.9445C10.0381 16.7499 9.13977 16.2698 8.43468 15.5647C7.72959 14.8596 7.24942 13.9612 7.05488 12.9833C6.86035 12.0053 6.96019 10.9916 7.34178 10.0703C7.72338 9.14907 8.36958 8.36167 9.19868 7.80768C10.0278 7.2537 11.0025 6.95801 11.9997 6.95801" stroke="#FF8411" stroke-width="2" stroke-linecap="round" stroke-linejoin="round"/>
<path d="M14.0165 2.11817C13.3644 1.98507 12.6922 1.91785 11.9998 1.9165C6.43081 1.9165 1.9165 6.43081 1.9165 11.9998C1.9165 17.5689 6.43081 22.0832 11.9998 22.0832C17.5689 22.0832 22.0832 17.5689 22.0832 11.9998C22.0818 11.3074 22.0146 10.6352 21.8815 9.98317" stroke="#FF8411" stroke-width="2" stroke-linecap="round" stroke-linejoin="round"/>
<path d="M12.0303 11.9616L16.6212 7.37069M19.8045 4.28115L19.2469 2.27659C19.2246 2.20022 19.1838 2.13053 19.1282 2.07368C19.0726 2.01682 19.0038 1.97456 18.9279 1.95063C18.852 1.92671 18.7714 1.92185 18.6932 1.93649C18.615 1.95114 18.5416 1.98483 18.4796 2.03459C17.0316 3.21736 15.4546 4.81154 16.7422 7.32531C19.3377 8.53531 20.8199 6.90383 21.9553 5.53149C22.0067 5.46828 22.0415 5.39327 22.0565 5.31323C22.0716 5.2332 22.0665 5.15067 22.0417 5.0731C22.0169 4.99553 21.9731 4.92537 21.9144 4.86896C21.8556 4.81255 21.7837 4.77168 21.7052 4.75003L19.8045 4.28115Z" stroke="#FF8411" stroke-width="2" stroke-linecap="round" stroke-linejoin="round"/>
</svg>
