<svg width="24" height="24" viewBox="0 0 24 24" fill="none" xmlns="http://www.w3.org/2000/svg">
<path d="M17.0423 12.0007C17.0423 12.9978 16.7466 13.9726 16.1926 14.8017C15.6387 15.6307 14.8513 16.277 13.93 16.6585C13.0088 17.0401 11.9951 17.14 11.0171 16.9454C10.0391 16.7509 9.14075 16.2707 8.43566 15.5656C7.73057 14.8606 7.25039 13.9622 7.05586 12.9842C6.86133 12.0062 6.96117 10.9925 7.34276 10.0713C7.72435 9.15004 8.37056 8.36264 9.19965 7.80866C10.0288 7.25467 11.0035 6.95898 12.0007 6.95898" stroke="#3C3939" stroke-width="2" stroke-linecap="round" stroke-linejoin="round"/>
<path d="M14.017 2.11866C13.3649 1.98556 12.6927 1.91834 12.0003 1.91699C6.4313 1.91699 1.91699 6.4313 1.91699 12.0003C1.91699 17.5694 6.4313 22.0837 12.0003 22.0837C17.5694 22.0837 22.0837 17.5694 22.0837 12.0003C22.0823 11.3079 22.0151 10.6357 21.882 9.98366" stroke="#3C3939" stroke-width="2" stroke-linecap="round" stroke-linejoin="round"/>
<path d="M12.0303 11.9621L16.6212 7.37118M19.8045 4.28164L19.2469 2.27708C19.2246 2.20071 19.1838 2.13102 19.1282 2.07416C19.0726 2.01731 19.0038 1.97505 18.9279 1.95112C18.852 1.92719 18.7714 1.92234 18.6932 1.93698C18.615 1.95162 18.5416 1.98532 18.4796 2.03508C17.0316 3.21785 15.4546 4.81203 16.7422 7.3258C19.3377 8.5358 20.8199 6.90432 21.9553 5.53198C22.0067 5.46877 22.0415 5.39376 22.0565 5.31372C22.0716 5.23369 22.0665 5.15115 22.0417 5.07358C22.0169 4.99602 21.9731 4.92586 21.9144 4.86945C21.8556 4.81304 21.7837 4.77217 21.7052 4.75052L19.8045 4.28164Z" stroke="#3C3939" stroke-width="2" stroke-linecap="round" stroke-linejoin="round"/>
</svg>
