<svg width="22" height="22" viewBox="0 0 22 22" fill="none" xmlns="http://www.w3.org/2000/svg">
<path d="M4.58333 20.1667C4.07917 20.1667 3.64772 19.9873 3.289 19.6286C2.93028 19.2698 2.75061 18.8381 2.75 18.3333V5.49998C2.75 4.99582 2.92967 4.56437 3.289 4.20565C3.64833 3.84693 4.07978 3.66726 4.58333 3.66665H5.5V2.74998C5.5 2.49026 5.588 2.27271 5.764 2.09732C5.94 1.92193 6.15756 1.83393 6.41667 1.83332C6.67578 1.83271 6.89364 1.92071 7.07025 2.09732C7.24686 2.27393 7.33456 2.49148 7.33333 2.74998V3.66665H14.6667V2.74998C14.6667 2.49026 14.7547 2.27271 14.9307 2.09732C15.1067 1.92193 15.3242 1.83393 15.5833 1.83332C15.8424 1.83271 16.0603 1.92071 16.2369 2.09732C16.4135 2.27393 16.5012 2.49148 16.5 2.74998V3.66665H17.4167C17.9208 3.66665 18.3526 3.84632 18.7119 4.20565C19.0713 4.56498 19.2506 4.99643 19.25 5.49998V18.3333C19.25 18.8375 19.0706 19.2692 18.7119 19.6286C18.3532 19.9879 17.9214 20.1673 17.4167 20.1667H4.58333ZM4.58333 18.3333H17.4167V9.16665H4.58333V18.3333ZM4.58333 7.33332H17.4167V5.49998H4.58333V7.33332ZM11 12.8333C10.7403 12.8333 10.5227 12.7453 10.3473 12.5693C10.1719 12.3933 10.0839 12.1758 10.0833 11.9167C10.0827 11.6575 10.1707 11.44 10.3473 11.264C10.5239 11.088 10.7415 11 11 11C11.2585 11 11.4764 11.088 11.6536 11.264C11.8308 11.44 11.9185 11.6575 11.9167 11.9167C11.9148 12.1758 11.8268 12.3936 11.6527 12.5702C11.4785 12.7468 11.2609 12.8345 11 12.8333ZM7.33333 12.8333C7.07361 12.8333 6.85606 12.7453 6.68067 12.5693C6.50528 12.3933 6.41728 12.1758 6.41667 11.9167C6.41606 11.6575 6.50406 11.44 6.68067 11.264C6.85728 11.088 7.07483 11 7.33333 11C7.59183 11 7.80969 11.088 7.98692 11.264C8.16414 11.44 8.25183 11.6575 8.25 11.9167C8.24817 12.1758 8.16017 12.3936 7.986 12.5702C7.81183 12.7468 7.59428 12.8345 7.33333 12.8333ZM14.6667 12.8333C14.4069 12.8333 14.1894 12.7453 14.014 12.5693C13.8386 12.3933 13.7506 12.1758 13.75 11.9167C13.7494 11.6575 13.8374 11.44 14.014 11.264C14.1906 11.088 14.4082 11 14.6667 11C14.9252 11 15.143 11.088 15.3202 11.264C15.4975 11.44 15.5852 11.6575 15.5833 11.9167C15.5815 12.1758 15.4935 12.3936 15.3193 12.5702C15.1452 12.7468 14.9276 12.8345 14.6667 12.8333ZM11 16.5C10.7403 16.5 10.5227 16.412 10.3473 16.236C10.1719 16.06 10.0839 15.8424 10.0833 15.5833C10.0827 15.3242 10.1707 15.1067 10.3473 14.9307C10.5239 14.7547 10.7415 14.6667 11 14.6667C11.2585 14.6667 11.4764 14.7547 11.6536 14.9307C11.8308 15.1067 11.9185 15.3242 11.9167 15.5833C11.9148 15.8424 11.8268 16.0603 11.6527 16.2369C11.4785 16.4135 11.2609 16.5012 11 16.5ZM7.33333 16.5C7.07361 16.5 6.85606 16.412 6.68067 16.236C6.50528 16.06 6.41728 15.8424 6.41667 15.5833C6.41606 15.3242 6.50406 15.1067 6.68067 14.9307C6.85728 14.7547 7.07483 14.6667 7.33333 14.6667C7.59183 14.6667 7.80969 14.7547 7.98692 14.9307C8.16414 15.1067 8.25183 15.3242 8.25 15.5833C8.24817 15.8424 8.16017 16.0603 7.986 16.2369C7.81183 16.4135 7.59428 16.5012 7.33333 16.5ZM14.6667 16.5C14.4069 16.5 14.1894 16.412 14.014 16.236C13.8386 16.06 13.7506 15.8424 13.75 15.5833C13.7494 15.3242 13.8374 15.1067 14.014 14.9307C14.1906 14.7547 14.4082 14.6667 14.6667 14.6667C14.9252 14.6667 15.143 14.7547 15.3202 14.9307C15.4975 15.1067 15.5852 15.3242 15.5833 15.5833C15.5815 15.8424 15.4935 16.0603 15.3193 16.2369C15.1452 16.4135 14.9276 16.5012 14.6667 16.5Z" fill="#9C9898"/>
</svg>
