<svg width="25" height="22" viewBox="0 0 25 22" fill="none" xmlns="http://www.w3.org/2000/svg">
<path d="M3.26912 3.26921H6.73066L9.03835 0.961517H15.9614L18.2691 3.26921H21.7307C22.3427 3.26921 22.9297 3.51234 23.3624 3.94512C23.7952 4.37789 24.0383 4.96486 24.0383 5.5769V19.4231C24.0383 20.0351 23.7952 20.6221 23.3624 21.0548C22.9297 21.4876 22.3427 21.7307 21.7307 21.7307H3.26912C2.65708 21.7307 2.07011 21.4876 1.63733 21.0548C1.20456 20.6221 0.961426 20.0351 0.961426 19.4231V5.5769C0.961426 4.96486 1.20456 4.37789 1.63733 3.94512C2.07011 3.51234 2.65708 3.26921 3.26912 3.26921ZM12.4999 6.73075C10.9698 6.73075 9.50237 7.33858 8.42042 8.42052C7.33848 9.50246 6.73066 10.9699 6.73066 12.5C6.73066 14.0301 7.33848 15.4975 8.42042 16.5794C9.50237 17.6614 10.9698 18.2692 12.4999 18.2692C14.03 18.2692 15.4974 17.6614 16.5793 16.5794C17.6613 15.4975 18.2691 14.0301 18.2691 12.5C18.2691 10.9699 17.6613 9.50246 16.5793 8.42052C15.4974 7.33858 14.03 6.73075 12.4999 6.73075ZM12.4999 9.03844C13.4179 9.03844 14.2984 9.40314 14.9476 10.0523C15.5967 10.7015 15.9614 11.5819 15.9614 12.5C15.9614 13.418 15.5967 14.2985 14.9476 14.9477C14.2984 15.5968 13.4179 15.9615 12.4999 15.9615C11.5818 15.9615 10.7014 15.5968 10.0522 14.9477C9.40304 14.2985 9.03835 13.418 9.03835 12.5C9.03835 11.5819 9.40304 10.7015 10.0522 10.0523C10.7014 9.40314 11.5818 9.03844 12.4999 9.03844Z" fill="#3C3939"/>
</svg>
