<svg width="72" height="32" viewBox="0 0 72 32" fill="none" xmlns="http://www.w3.org/2000/svg">
<rect width="72" height="32" rx="16" fill="#FF7B00"/>
<path d="M21.9043 15.4629V16.8711H17.0918V17.7939C19.252 17.9512 20.5371 18.7305 20.5508 20.0156C20.5371 21.458 18.9033 22.2646 16.2168 22.2578C13.4893 22.2646 11.8555 21.458 11.8555 20.0156C11.8555 18.7236 13.1475 17.9443 15.3555 17.7871V16.8711H10.5566V15.4629H21.9043ZM11.0625 13.6309C13.3662 13.4258 14.6377 12.5781 14.9521 11.7168H11.5957V10.3496H20.8789V11.7168H17.4951C17.7959 12.585 19.0605 13.4258 21.4258 13.6309L20.8105 14.998C18.459 14.7725 16.8799 13.8906 16.2168 12.6807C15.5605 13.8838 13.9951 14.7793 11.6367 14.998L11.0625 13.6309ZM13.6328 20.0156C13.626 20.6172 14.4941 20.9453 16.2168 20.9453C17.9053 20.9453 18.7939 20.6172 18.8008 20.0156C18.7939 19.3867 17.9053 19.0859 16.2168 19.0723C14.4941 19.0859 13.626 19.3867 13.6328 20.0156ZM34.0039 15.9824V17.3906H22.6562V15.9824H27.4414V14.9297H24.1055V10.1172H25.8281V11.252H30.8184V10.1172H32.5547V14.9297H29.1914V15.9824H34.0039ZM23.9141 19.6191V18.2383H32.623V22.2578H30.8867V19.6191H23.9141ZM25.8281 13.5625H30.8184V12.5371H25.8281V13.5625ZM47.9355 9.83008V13.3848H49.5215V14.8203H47.9355V18.2793H46.1855V9.83008H47.9355ZM37.8457 16.6797C38.7549 16.6797 39.7871 16.6797 40.8672 16.6523V15.9551C39.5137 15.7637 38.6729 15.1006 38.6797 14.1504C38.6729 12.9951 39.8828 12.2842 41.7285 12.291C43.5605 12.2842 44.7705 12.9951 44.7773 14.1504C44.7705 15.1006 43.9365 15.7568 42.6035 15.9482V16.5908C43.6289 16.5361 44.6543 16.4609 45.6113 16.3379L45.7344 17.541C43.1025 18.0059 40.2178 18.0332 38.0234 18.0332L37.8457 16.6797ZM38.1738 12.0039V10.7324H40.8672V9.7207H42.6035V10.7324H45.2969V12.0039H38.1738ZM39.4316 20.125V18.7852H47.9355V22.2578H46.1855V20.125H39.4316ZM40.3477 14.1504C40.3408 14.6016 40.8398 14.8682 41.7285 14.8613C42.6035 14.8682 43.1025 14.6016 43.1094 14.1504C43.1025 13.665 42.6035 13.4531 41.7285 13.4531C40.8398 13.4531 40.3408 13.665 40.3477 14.1504ZM60.5 9.83008V18.7715H58.75V9.83008H60.5ZM50.2734 13.7539C50.2734 11.9287 51.7637 10.6162 53.6777 10.623C55.585 10.6162 57.0752 11.9287 57.082 13.7539C57.0752 15.6064 55.585 16.9121 53.6777 16.9121C51.7637 16.9121 50.2734 15.6064 50.2734 13.7539ZM51.9824 13.7539C51.9688 14.793 52.7002 15.3945 53.6777 15.3945C54.6211 15.3945 55.3525 14.793 55.3594 13.7539C55.3525 12.7422 54.6211 12.1338 53.6777 12.1406C52.7002 12.1338 51.9688 12.7422 51.9824 13.7539ZM52.1602 22.0391V17.8691H53.9238V20.6445H60.8281V22.0391H52.1602Z" fill="white"/>
</svg>
