<svg width="20" height="20" viewBox="0 0 20 20" fill="none" xmlns="http://www.w3.org/2000/svg">
<path d="M17.7689 11.3878L17.7689 11.3878C17.7987 11.5307 17.7704 11.6797 17.6904 11.8018C17.6104 11.9239 17.4851 12.0092 17.3422 12.039C17.1992 12.0687 17.0503 12.0405 16.9282 11.9604C16.8061 11.8804 16.7208 11.7551 16.691 11.6122M17.7689 11.3878L3.30893 11.6122M17.7689 11.3878C16.9872 7.64032 13.7174 4.95 9.99998 4.95C6.28258 4.95 3.01272 7.64032 2.23103 11.3878L2.23103 11.3878M17.7689 11.3878L2.23103 11.3878M16.691 11.6122L16.74 11.602L16.691 11.6122C16.691 11.6122 16.691 11.6122 16.691 11.6122ZM16.691 11.6122C16.0127 8.35968 13.1826 6.05 9.99998 6.05C6.81735 6.05 3.98624 8.3597 3.30893 11.6122M3.30893 11.6122C3.27917 11.7551 3.19385 11.8804 3.07174 11.9604M3.30893 11.6122L3.07174 11.9604M2.23103 11.3878C2.20127 11.5307 2.22952 11.6797 2.30955 11.8018M2.23103 11.3878L2.30955 11.8018M2.30955 11.8018C2.38958 11.9239 2.51485 12.0092 2.65779 12.039M2.30955 11.8018L2.65779 12.039M2.65779 12.039C2.80072 12.0687 2.94963 12.0405 3.07174 11.9604M2.65779 12.039L3.07174 11.9604M9.99998 7.95C9.05846 7.95 8.1555 8.32402 7.48975 8.98977C6.82399 9.65553 6.44998 10.5585 6.44998 11.5C6.44998 12.4415 6.82399 13.3445 7.48975 14.0102C8.1555 14.676 9.05846 15.05 9.99998 15.05C10.9415 15.05 11.8444 14.676 12.5102 14.0102C13.176 13.3445 13.55 12.4415 13.55 11.5C13.55 10.5585 13.176 9.65553 12.5102 8.98977C11.8444 8.32402 10.9415 7.95 9.99998 7.95ZM7.54998 11.5C7.54998 10.8502 7.8081 10.2271 8.26756 9.76759C8.72703 9.30812 9.3502 9.05 9.99998 9.05C10.6498 9.05 11.2729 9.30812 11.7324 9.76759C12.1919 10.2271 12.45 10.8502 12.45 11.5C12.45 12.1498 12.1919 12.7729 11.7324 13.2324C11.2729 13.6919 10.6498 13.95 9.99998 13.95C9.3502 13.95 8.72703 13.6919 8.26756 13.2324C7.8081 12.7729 7.54998 12.1498 7.54998 11.5Z" fill="#9C9898" stroke="#9C9898" stroke-width="0.1"/>
<path d="M10 5.5V3" stroke="#9C9898" stroke-width="1.2" stroke-linecap="round"/>
<path d="M14.5 6.5L16 5" stroke="#9C9898" stroke-width="1.2" stroke-linecap="round"/>
<path d="M5.5 6.5L4 5" stroke="#9C9898" stroke-width="1.2" stroke-linecap="round"/>
</svg>
