<svg width="20" height="20" viewBox="0 0 20 20" fill="none" xmlns="http://www.w3.org/2000/svg">
<path d="M2.23102 3.61273L2.23101 3.61271C2.20126 3.46977 2.22951 3.32086 2.30954 3.19875C2.38957 3.07664 2.51484 2.99132 2.65777 2.96157C2.80071 2.93181 2.94962 2.96006 3.07173 3.04009C3.19384 3.12012 3.27916 3.24539 3.30892 3.38833M2.23102 3.61273L16.691 3.38833M2.23102 3.61273C3.01271 7.3602 6.28257 10.0505 9.99996 10.0505C13.7174 10.0505 16.9872 7.3602 17.7689 3.61273L17.7689 3.61271M2.23102 3.61273L17.7689 3.61271M3.30892 3.38833L3.25996 3.39852L3.30891 3.38831C3.30891 3.38832 3.30892 3.38832 3.30892 3.38833ZM3.30892 3.38833C3.98723 6.64084 6.81736 8.95052 9.99996 8.95052C13.1826 8.95052 16.0137 6.64082 16.691 3.38833M16.691 3.38833C16.7208 3.24539 16.8061 3.12013 16.9282 3.04009M16.691 3.38833L16.9282 3.04009M17.7689 3.61271C17.7987 3.46977 17.7704 3.32087 17.6904 3.19875M17.7689 3.61271L17.6904 3.19875M17.6904 3.19875C17.6104 3.07664 17.4851 2.99132 17.3422 2.96157M17.6904 3.19875L17.3422 2.96157M17.3422 2.96157C17.1992 2.93181 17.0503 2.96006 16.9282 3.04009M17.3422 2.96157L16.9282 3.04009" fill="#9C9898" stroke="#9C9898" stroke-width="0.1"/>
<path d="M9.99994 9.50052L9.99994 12.0005" stroke="#9C9898" stroke-width="1.2" stroke-linecap="round"/>
<path d="M5.49994 8.50052L3.99994 10.0005" stroke="#9C9898" stroke-width="1.2" stroke-linecap="round"/>
<path d="M14.4999 8.50052L15.9999 10.0005" stroke="#9C9898" stroke-width="1.2" stroke-linecap="round"/>
</svg>
